<svg width="224" height="48" viewBox="0 0 224 48" fill="none" xmlns="http://www.w3.org/2000/svg">
<path d="M45.6245 6.17817C38.2198 -1.22809 30.8777 2.00828 25.0005 7.29127C19.1202 2.00828 11.8392 -1.28597 4.37504 6.17817C-1.44431 11.9943 -1.47236 21.3409 4.37504 27.1257C24.9365 45.6217 24.9317 45.5888 24.9317 45.5888C24.9317 45.5888 24.9613 45.6497 45.6229 27.1256C51.4735 21.3407 51.4438 11.9943 45.6245 6.17817Z" fill="#EC5569"/>
<path d="M24.9992 7.28965L24.9851 7.27875V45.5434C25.3149 45.265 27.74 43.1591 45.623 27.124C51.4721 21.3407 51.4438 11.9941 45.623 6.17799C38.2184 -1.2281 30.8779 2.00827 24.9992 7.28965Z" fill="#EC5569"/>
<path d="M56.03 6.43C56.17 6.41 56.35 6.4 56.57 6.4C56.81 6.38 57.01 6.37 57.17 6.37C57.33 6.37 57.52 6.38 57.74 6.4C57.96 6.4 58.14 6.41 58.28 6.43L68.6 24.49V6.43C68.74 6.41 68.89 6.4 69.05 6.4C69.23 6.38 69.41 6.37 69.59 6.37C69.75 6.37 69.92 6.38 70.1 6.4C70.3 6.4 70.47 6.41 70.61 6.43V28C70.49 28.02 70.31 28.03 70.07 28.03C69.85 28.05 69.65 28.06 69.47 28.06C69.31 28.06 69.12 28.05 68.9 28.03C68.68 28.03 68.5 28.02 68.36 28L58.04 10.09V28C57.9 28.02 57.74 28.03 57.56 28.03C57.4 28.05 57.23 28.06 57.05 28.06C56.85 28.06 56.66 28.05 56.48 28.03C56.3 28.03 56.15 28.02 56.03 28V6.43ZM77.5543 20.65C77.5543 22.69 78.0243 24.19 78.9643 25.15C79.9043 26.11 81.3143 26.59 83.1943 26.59C83.9543 26.59 84.6543 26.53 85.2943 26.41C85.9543 26.27 86.5943 26.09 87.2143 25.87C87.3143 26.09 87.3943 26.36 87.4543 26.68C87.5143 27 87.5543 27.29 87.5743 27.55C86.9943 27.81 86.3143 28.01 85.5343 28.15C84.7543 28.29 83.9043 28.36 82.9843 28.36C81.6643 28.36 80.5243 28.17 79.5643 27.79C78.6243 27.39 77.8443 26.84 77.2243 26.14C76.6243 25.44 76.1743 24.61 75.8743 23.65C75.5943 22.67 75.4543 21.6 75.4543 20.44C75.4543 19.32 75.5843 18.27 75.8443 17.29C76.1243 16.31 76.5343 15.45 77.0743 14.71C77.6343 13.97 78.3443 13.39 79.2043 12.97C80.0643 12.55 81.0943 12.34 82.2943 12.34C83.2943 12.34 84.1843 12.51 84.9643 12.85C85.7443 13.19 86.3943 13.67 86.9143 14.29C87.4543 14.89 87.8543 15.62 88.1143 16.48C88.3943 17.32 88.5343 18.24 88.5343 19.24C88.5343 19.42 88.5243 19.65 88.5043 19.93C88.5043 20.21 88.4943 20.45 88.4743 20.65H77.5543ZM86.5543 19C86.5543 18.38 86.4743 17.77 86.3143 17.17C86.1543 16.57 85.9043 16.05 85.5643 15.61C85.2243 15.15 84.7843 14.78 84.2443 14.5C83.7043 14.22 83.0543 14.08 82.2943 14.08C80.8943 14.08 79.8043 14.51 79.0243 15.37C78.2443 16.23 77.7743 17.44 77.6143 19H86.5543ZM92.7563 12.7C92.8763 12.68 93.0463 12.67 93.2663 12.67C93.4863 12.65 93.6463 12.64 93.7463 12.64C93.8663 12.64 94.0263 12.65 94.2263 12.67C94.4463 12.67 94.6163 12.68 94.7363 12.7V21.31C94.7363 22.39 94.8463 23.28 95.0663 23.98C95.2863 24.66 95.6063 25.2 96.0263 25.6C96.4663 25.98 96.9963 26.25 97.6163 26.41C98.2363 26.55 98.9363 26.62 99.7163 26.62C100.376 26.62 100.966 26.59 101.486 26.53C102.006 26.45 102.466 26.35 102.866 26.23V12.7C102.986 12.68 103.156 12.67 103.376 12.67C103.596 12.65 103.756 12.64 103.856 12.64C103.976 12.64 104.136 12.65 104.336 12.67C104.556 12.67 104.726 12.68 104.846 12.7V27.61C104.106 27.81 103.276 27.98 102.356 28.12C101.456 28.28 100.526 28.36 99.5663 28.36C98.6263 28.36 97.7363 28.27 96.8963 28.09C96.0763 27.91 95.3563 27.57 94.7363 27.07C94.1363 26.55 93.6563 25.84 93.2963 24.94C92.9363 24.04 92.7563 22.87 92.7563 21.43V12.7ZM110.132 12.7C110.292 12.68 110.442 12.67 110.582 12.67C110.742 12.65 110.892 12.64 111.032 12.64C111.192 12.64 111.342 12.65 111.482 12.67C111.622 12.67 111.772 12.68 111.932 12.7C111.972 13.06 112.002 13.49 112.022 13.99C112.042 14.47 112.052 14.91 112.052 15.31C112.452 14.57 113.012 13.95 113.732 13.45C114.452 12.93 115.402 12.67 116.582 12.67C116.682 12.67 116.782 12.67 116.882 12.67C117.002 12.67 117.132 12.68 117.272 12.7C117.332 13.04 117.362 13.36 117.362 13.66C117.362 13.98 117.332 14.29 117.272 14.59C117.112 14.57 116.982 14.56 116.882 14.56C116.802 14.56 116.712 14.56 116.612 14.56C115.252 14.56 114.162 14.99 113.342 15.85C112.522 16.71 112.112 18.14 112.112 20.14V28C111.992 28.02 111.822 28.03 111.602 28.03C111.402 28.05 111.242 28.06 111.122 28.06C111.022 28.06 110.862 28.05 110.642 28.03C110.422 28.03 110.252 28.02 110.132 28V12.7ZM128.758 20.56C128.418 20.52 127.988 20.48 127.468 20.44C126.968 20.38 126.488 20.35 126.028 20.35C124.528 20.35 123.368 20.63 122.548 21.19C121.728 21.75 121.318 22.55 121.318 23.59C121.318 24.25 121.438 24.78 121.678 25.18C121.938 25.58 122.268 25.89 122.668 26.11C123.068 26.31 123.508 26.45 123.988 26.53C124.468 26.59 124.948 26.62 125.428 26.62C126.048 26.62 126.628 26.59 127.168 26.53C127.708 26.47 128.238 26.39 128.758 26.29V20.56ZM128.758 17.89C128.758 16.57 128.448 15.61 127.828 15.01C127.208 14.39 126.288 14.08 125.068 14.08C124.268 14.08 123.538 14.14 122.878 14.26C122.218 14.36 121.628 14.49 121.108 14.65C121.008 14.47 120.918 14.21 120.838 13.87C120.778 13.53 120.748 13.21 120.748 12.91C121.268 12.75 121.908 12.62 122.668 12.52C123.428 12.4 124.208 12.34 125.008 12.34C126.948 12.34 128.388 12.77 129.328 13.63C130.268 14.47 130.738 15.8 130.738 17.62V27.73C130.038 27.87 129.188 28.01 128.188 28.15C127.188 28.29 126.238 28.36 125.338 28.36C123.478 28.36 122.008 27.99 120.928 27.25C119.868 26.51 119.338 25.31 119.338 23.65C119.338 22.85 119.488 22.14 119.788 21.52C120.108 20.88 120.538 20.35 121.078 19.93C121.638 19.49 122.298 19.16 123.058 18.94C123.838 18.72 124.688 18.61 125.607 18.61C126.328 18.61 126.948 18.64 127.468 18.7C127.988 18.74 128.418 18.78 128.758 18.82V17.89ZM135.708 5.95C135.828 5.93 135.988 5.92 136.188 5.92C136.408 5.9 136.578 5.89 136.698 5.89C136.798 5.89 136.958 5.9 137.178 5.92C137.398 5.92 137.568 5.93 137.688 5.95V24.46C137.688 24.98 137.748 25.39 137.868 25.69C137.988 25.97 138.138 26.18 138.318 26.32C138.498 26.44 138.698 26.52 138.918 26.56C139.138 26.58 139.338 26.59 139.518 26.59C139.738 26.59 139.968 26.58 140.208 26.56C140.448 26.52 140.648 26.48 140.808 26.44C140.908 26.68 140.978 26.94 141.018 27.22C141.058 27.5 141.088 27.76 141.108 28C140.828 28.1 140.508 28.17 140.148 28.21C139.808 28.25 139.488 28.27 139.188 28.27C138.768 28.27 138.348 28.22 137.928 28.12C137.508 28.04 137.128 27.88 136.788 27.64C136.468 27.38 136.208 27.04 136.008 26.62C135.808 26.18 135.708 25.61 135.708 24.91V5.95Z" fill="#615FE6"/>
<path d="M149.812 24.4551V9.7041C149.812 9.0791 149.963 8.49316 150.266 7.94629C150.578 7.38965 151.003 6.95996 151.54 6.65723C152.087 6.34473 152.673 6.18848 153.298 6.18848H158.044C159.714 6.18848 161.228 6.37402 162.585 6.74512C163.952 7.10645 165.139 7.64355 166.145 8.35645C167.16 9.05957 168.005 9.92383 168.679 10.9492C169.362 11.9746 169.865 13.1562 170.188 14.4941C170.383 15.3633 170.48 16.2666 170.48 17.2041C170.451 19.2354 169.948 21.0762 168.972 22.7266C167.995 24.377 166.638 25.6709 164.899 26.6084C163.171 27.5361 161.232 28 159.084 28H153.269C152.321 28 151.506 27.6533 150.822 26.96C150.148 26.2568 149.812 25.4219 149.812 24.4551ZM156.74 21.9648H158.396C159.421 21.9648 160.324 21.7646 161.105 21.3643C161.896 20.9541 162.512 20.3877 162.951 19.665C163.391 18.9424 163.61 18.1318 163.61 17.2334C163.61 16.8721 163.562 16.4619 163.464 16.0029C163.239 14.8701 162.653 13.9619 161.706 13.2783C160.759 12.5947 159.567 12.2529 158.132 12.2529H156.74V21.9648ZM171.521 28.0293C170.847 27.7363 170.324 27.3311 169.953 26.8135C169.592 26.2861 169.411 25.6807 169.411 24.9971C169.411 24.4893 169.543 23.8691 169.807 23.1367L174.963 9.82129C175.441 8.60059 176.135 7.66309 177.043 7.00879C177.961 6.34473 179.006 6.0127 180.178 6.0127C181.359 6.0127 182.404 6.34473 183.312 7.00879C184.23 7.66309 184.929 8.60059 185.407 9.82129L190.563 23.1367C190.827 23.9082 190.959 24.5283 190.959 24.9971C190.959 25.6807 190.773 26.2861 190.402 26.8135C190.041 27.3311 189.523 27.7363 188.85 28.0293C188.381 28.2344 187.902 28.3369 187.414 28.3369C186.721 28.3369 186.076 28.1172 185.48 27.6777C184.895 27.2383 184.46 26.6279 184.177 25.8467L183.84 24.8506H176.56L176.193 25.8467C175.93 26.6084 175.5 27.2139 174.904 27.6631C174.318 28.1123 173.669 28.3369 172.956 28.3369C172.468 28.3369 171.989 28.2344 171.521 28.0293ZM178.566 18.8154H181.804L180.178 13L178.566 18.8154ZM190.256 9.16211C190.275 8.60547 190.417 8.10254 190.681 7.65332C190.944 7.19434 191.301 6.83789 191.75 6.58398C192.199 6.32031 192.688 6.18848 193.215 6.18848H204.948C205.505 6.18848 206.008 6.33008 206.457 6.61328C206.906 6.88672 207.263 7.2627 207.526 7.74121C207.79 8.20996 207.922 8.72266 207.922 9.2793C207.893 10.1094 207.585 10.8125 206.999 11.3887C206.413 11.9648 205.729 12.2529 204.948 12.2529H202.429V24.8213C202.429 25.4561 202.272 26.0322 201.96 26.5498C201.657 27.0576 201.247 27.4678 200.729 27.7803C200.222 28.083 199.65 28.2344 199.016 28.2344C198.371 28.2344 197.785 28.083 197.258 27.7803C196.74 27.4678 196.325 27.043 196.013 26.5059C195.71 25.9688 195.559 25.3877 195.559 24.7627V12.1943H193.186C192.375 12.1943 191.682 11.8965 191.105 11.3008C190.539 10.7051 190.256 9.99219 190.256 9.16211ZM208.83 25.7441C208.645 25.3145 208.552 24.875 208.552 24.4258V9.7041C208.552 9.0498 208.703 8.4541 209.006 7.91699C209.309 7.37988 209.724 6.95996 210.251 6.65723C210.778 6.34473 211.374 6.18848 212.038 6.18848H220.285C220.783 6.18848 221.257 6.3252 221.706 6.59863C222.165 6.8623 222.526 7.22363 222.79 7.68262C223.063 8.1416 223.2 8.6543 223.2 9.2207C223.2 9.77734 223.063 10.29 222.79 10.7588C222.526 11.2275 222.165 11.5986 221.706 11.8721C221.257 12.1455 220.764 12.2822 220.227 12.2822H215.48V14.1133H219.392C219.812 14.1133 220.227 14.2012 220.637 14.377C221.047 14.543 221.398 14.7725 221.691 15.0654C221.984 15.3193 222.209 15.627 222.365 15.9883C222.521 16.3398 222.6 16.7061 222.6 17.0869C222.6 17.8877 222.287 18.5859 221.662 19.1816C220.988 19.7578 220.241 20.0459 219.421 20.0459H215.48V21.9355H219.992C220.891 21.9355 221.667 22.248 222.321 22.873C222.634 23.1367 222.868 23.459 223.024 23.8398C223.181 24.2109 223.259 24.5967 223.259 24.9971C223.259 25.8271 222.956 26.5303 222.351 27.1064C221.677 27.7021 220.92 28 220.08 28H212.009C211.364 28 210.749 27.7998 210.163 27.3994C209.587 26.9893 209.143 26.4375 208.83 25.7441Z" fill="#EC5569"/>
<path d="M57.3311 46H56.0664V38.6035H57.3311V46ZM55.9639 36.6416C55.9639 36.4365 56.0254 36.2633 56.1484 36.1221C56.276 35.9808 56.4629 35.9102 56.709 35.9102C56.9551 35.9102 57.1419 35.9808 57.2695 36.1221C57.3971 36.2633 57.4609 36.4365 57.4609 36.6416C57.4609 36.8467 57.3971 37.0176 57.2695 37.1543C57.1419 37.291 56.9551 37.3594 56.709 37.3594C56.4629 37.3594 56.276 37.291 56.1484 37.1543C56.0254 37.0176 55.9639 36.8467 55.9639 36.6416ZM60.5576 38.6035L60.5986 39.5332C61.1637 38.8223 61.902 38.4668 62.8135 38.4668C64.3766 38.4668 65.165 39.3486 65.1787 41.1123V46H63.9141V41.1055C63.9095 40.5723 63.7865 40.1781 63.5449 39.9229C63.3079 39.6676 62.9365 39.54 62.4307 39.54C62.0205 39.54 61.6605 39.6494 61.3506 39.8682C61.0407 40.0869 60.7992 40.374 60.626 40.7295V46H59.3613V38.6035H60.5576ZM68.8018 36.8125V38.6035H70.1826V39.5811H68.8018V44.168C68.8018 44.4642 68.8633 44.6875 68.9863 44.8379C69.1094 44.9837 69.319 45.0566 69.6152 45.0566C69.7611 45.0566 69.9616 45.0293 70.2168 44.9746V46C69.8841 46.0911 69.5605 46.1367 69.2461 46.1367C68.681 46.1367 68.2549 45.9658 67.9678 45.624C67.6807 45.2822 67.5371 44.7969 67.5371 44.168V39.5811H66.1904V38.6035H67.5371V36.8125H68.8018ZM74.7354 46.1367C73.7327 46.1367 72.917 45.8086 72.2881 45.1523C71.6592 44.4915 71.3447 43.6097 71.3447 42.5068V42.2744C71.3447 41.5407 71.4837 40.8867 71.7617 40.3125C72.0443 39.7337 72.4362 39.2826 72.9375 38.959C73.4434 38.6309 73.9902 38.4668 74.5781 38.4668C75.5397 38.4668 76.2871 38.7835 76.8203 39.417C77.3535 40.0505 77.6201 40.9574 77.6201 42.1377V42.6641H72.6094C72.6276 43.3932 72.8395 43.9834 73.2451 44.4346C73.6553 44.8812 74.1748 45.1045 74.8037 45.1045C75.2503 45.1045 75.6286 45.0133 75.9385 44.8311C76.2484 44.6488 76.5195 44.4072 76.752 44.1064L77.5244 44.708C76.9046 45.6605 75.9749 46.1367 74.7354 46.1367ZM74.5781 39.5059C74.0677 39.5059 73.6393 39.6927 73.293 40.0664C72.9466 40.4355 72.7324 40.9551 72.6504 41.625H76.3555V41.5293C76.319 40.8867 76.1458 40.39 75.8359 40.0391C75.526 39.6836 75.1068 39.5059 74.5781 39.5059ZM82.665 39.7383C82.4736 39.7064 82.2663 39.6904 82.043 39.6904C81.2135 39.6904 80.6507 40.0436 80.3545 40.75V46H79.0898V38.6035H80.3203L80.3408 39.458C80.7555 38.7972 81.3434 38.4668 82.1045 38.4668C82.3506 38.4668 82.5374 38.4987 82.665 38.5625V39.7383ZM85.0303 38.6035L85.0713 39.5332C85.6364 38.8223 86.3747 38.4668 87.2861 38.4668C88.8493 38.4668 89.6377 39.3486 89.6514 41.1123V46H88.3867V41.1055C88.3822 40.5723 88.2591 40.1781 88.0176 39.9229C87.7806 39.6676 87.4092 39.54 86.9033 39.54C86.4932 39.54 86.1331 39.6494 85.8232 39.8682C85.5133 40.0869 85.2718 40.374 85.0986 40.7295V46H83.834V38.6035H85.0303ZM96.125 46C96.0521 45.8542 95.9928 45.5944 95.9473 45.2207C95.3594 45.8314 94.6576 46.1367 93.8418 46.1367C93.1126 46.1367 92.5133 45.9316 92.0439 45.5215C91.5791 45.1068 91.3467 44.5827 91.3467 43.9492C91.3467 43.179 91.6383 42.582 92.2217 42.1582C92.8096 41.7298 93.6344 41.5156 94.6963 41.5156H95.9268V40.9346C95.9268 40.4925 95.7946 40.1416 95.5303 39.8818C95.266 39.6175 94.8763 39.4854 94.3613 39.4854C93.9102 39.4854 93.5319 39.5993 93.2266 39.8271C92.9212 40.055 92.7686 40.3307 92.7686 40.6543H91.4971C91.4971 40.2852 91.627 39.9297 91.8867 39.5879C92.151 39.2415 92.5065 38.9681 92.9531 38.7676C93.4043 38.5671 93.8988 38.4668 94.4365 38.4668C95.2887 38.4668 95.9564 38.681 96.4395 39.1094C96.9225 39.5332 97.1732 40.1188 97.1914 40.8662V44.2705C97.1914 44.9495 97.278 45.4896 97.4512 45.8906V46H96.125ZM94.0264 45.0361C94.4229 45.0361 94.7988 44.9336 95.1543 44.7285C95.5098 44.5234 95.7673 44.2568 95.9268 43.9287V42.4111H94.9355C93.3861 42.4111 92.6113 42.8646 92.6113 43.7715C92.6113 44.168 92.7435 44.4779 93.0078 44.7012C93.2721 44.9245 93.6117 45.0361 94.0264 45.0361ZM100.89 36.8125V38.6035H102.271V39.5811H100.89V44.168C100.89 44.4642 100.951 44.6875 101.074 44.8379C101.197 44.9837 101.407 45.0566 101.703 45.0566C101.849 45.0566 102.049 45.0293 102.305 44.9746V46C101.972 46.0911 101.648 46.1367 101.334 46.1367C100.769 46.1367 100.343 45.9658 100.056 45.624C99.7686 45.2822 99.625 44.7969 99.625 44.168V39.5811H98.2783V38.6035H99.625V36.8125H100.89ZM105.128 46H103.863V38.6035H105.128V46ZM103.761 36.6416C103.761 36.4365 103.822 36.2633 103.945 36.1221C104.073 35.9808 104.26 35.9102 104.506 35.9102C104.752 35.9102 104.939 35.9808 105.066 36.1221C105.194 36.2633 105.258 36.4365 105.258 36.6416C105.258 36.8467 105.194 37.0176 105.066 37.1543C104.939 37.291 104.752 37.3594 104.506 37.3594C104.26 37.3594 104.073 37.291 103.945 37.1543C103.822 37.0176 103.761 36.8467 103.761 36.6416ZM106.823 42.2334C106.823 41.5088 106.965 40.8571 107.247 40.2783C107.534 39.6995 107.931 39.2529 108.437 38.9385C108.947 38.624 109.528 38.4668 110.18 38.4668C111.187 38.4668 112 38.8154 112.62 39.5127C113.244 40.21 113.557 41.1374 113.557 42.2949V42.3838C113.557 43.1038 113.418 43.751 113.14 44.3252C112.866 44.8949 112.472 45.3392 111.957 45.6582C111.447 45.9772 110.859 46.1367 110.193 46.1367C109.191 46.1367 108.377 45.7881 107.753 45.0908C107.133 44.3936 106.823 43.4707 106.823 42.3223V42.2334ZM108.095 42.3838C108.095 43.2041 108.284 43.8626 108.662 44.3594C109.045 44.8561 109.555 45.1045 110.193 45.1045C110.836 45.1045 111.346 44.8538 111.725 44.3525C112.103 43.8467 112.292 43.1403 112.292 42.2334C112.292 41.4222 112.098 40.766 111.711 40.2646C111.328 39.7588 110.818 39.5059 110.18 39.5059C109.555 39.5059 109.052 39.7542 108.669 40.251C108.286 40.7477 108.095 41.4587 108.095 42.3838ZM116.339 38.6035L116.38 39.5332C116.945 38.8223 117.683 38.4668 118.595 38.4668C120.158 38.4668 120.946 39.3486 120.96 41.1123V46H119.695V41.1055C119.691 40.5723 119.568 40.1781 119.326 39.9229C119.089 39.6676 118.718 39.54 118.212 39.54C117.802 39.54 117.442 39.6494 117.132 39.8682C116.822 40.0869 116.58 40.374 116.407 40.7295V46H115.143V38.6035H116.339ZM127.434 46C127.361 45.8542 127.301 45.5944 127.256 45.2207C126.668 45.8314 125.966 46.1367 125.15 46.1367C124.421 46.1367 123.822 45.9316 123.353 45.5215C122.888 45.1068 122.655 44.5827 122.655 43.9492C122.655 43.179 122.947 42.582 123.53 42.1582C124.118 41.7298 124.943 41.5156 126.005 41.5156H127.235V40.9346C127.235 40.4925 127.103 40.1416 126.839 39.8818C126.575 39.6175 126.185 39.4854 125.67 39.4854C125.219 39.4854 124.84 39.5993 124.535 39.8271C124.23 40.055 124.077 40.3307 124.077 40.6543H122.806C122.806 40.2852 122.936 39.9297 123.195 39.5879C123.46 39.2415 123.815 38.9681 124.262 38.7676C124.713 38.5671 125.207 38.4668 125.745 38.4668C126.597 38.4668 127.265 38.681 127.748 39.1094C128.231 39.5332 128.482 40.1188 128.5 40.8662V44.2705C128.5 44.9495 128.587 45.4896 128.76 45.8906V46H127.434ZM125.335 45.0361C125.731 45.0361 126.107 44.9336 126.463 44.7285C126.818 44.5234 127.076 44.2568 127.235 43.9287V42.4111H126.244C124.695 42.4111 123.92 42.8646 123.92 43.7715C123.92 44.168 124.052 44.4779 124.316 44.7012C124.581 44.9245 124.92 45.0361 125.335 45.0361ZM131.856 46H130.592V35.5H131.856V46ZM138.054 46V36.0469H140.863C141.729 36.0469 142.495 36.2383 143.16 36.6211C143.826 37.0039 144.338 37.5485 144.698 38.2549C145.063 38.9613 145.247 39.7725 145.252 40.6885V41.3242C145.252 42.263 145.07 43.0856 144.705 43.792C144.345 44.4984 143.828 45.0407 143.153 45.4189C142.483 45.7972 141.702 45.9909 140.809 46H138.054ZM139.366 37.127V44.9268H140.747C141.759 44.9268 142.545 44.6123 143.105 43.9834C143.671 43.3545 143.953 42.459 143.953 41.2969V40.7158C143.953 39.5856 143.687 38.7083 143.153 38.084C142.625 37.4551 141.873 37.1361 140.897 37.127H139.366ZM152.587 43.4023H148.417L147.48 46H146.127L149.928 36.0469H151.076L154.884 46H153.537L152.587 43.4023ZM148.813 42.3223H152.197L150.502 37.667L148.813 42.3223ZM162.212 37.127H159.013V46H157.707V37.127H154.515V36.0469H162.212V37.127ZM165.097 46H163.784V36.0469H165.097V46ZM175.152 46H173.833L168.822 38.3301V46H167.503V36.0469H168.822L173.847 43.751V36.0469H175.152V46ZM184.832 44.6943C184.495 45.1774 184.023 45.5397 183.417 45.7812C182.815 46.0182 182.114 46.1367 181.312 46.1367C180.5 46.1367 179.78 45.9476 179.151 45.5693C178.522 45.1865 178.035 44.6442 177.688 43.9424C177.347 43.2406 177.171 42.4271 177.162 41.502V40.6338C177.162 39.1344 177.511 37.9723 178.208 37.1475C178.91 36.3226 179.894 35.9102 181.161 35.9102C182.2 35.9102 183.036 36.1768 183.67 36.71C184.303 37.2386 184.691 37.9906 184.832 38.9658H183.52C183.273 37.6488 182.49 36.9902 181.168 36.9902C180.288 36.9902 179.621 37.3001 179.165 37.9199C178.714 38.5352 178.486 39.4284 178.481 40.5996V41.4131C178.481 42.5296 178.737 43.4183 179.247 44.0791C179.757 44.7354 180.448 45.0635 181.318 45.0635C181.811 45.0635 182.241 45.0088 182.61 44.8994C182.979 44.79 183.285 44.6055 183.526 44.3457V42.1104H181.223V41.0439H184.832V44.6943ZM197.82 42.8418C197.697 43.8945 197.308 44.708 196.651 45.2822C196 45.8519 195.132 46.1367 194.047 46.1367C192.871 46.1367 191.928 45.7152 191.217 44.8721C190.51 44.029 190.157 42.901 190.157 41.4883V40.5312C190.157 39.6061 190.321 38.7926 190.649 38.0908C190.982 37.389 191.451 36.8512 192.058 36.4775C192.664 36.0993 193.366 35.9102 194.163 35.9102C195.22 35.9102 196.068 36.2064 196.706 36.7988C197.344 37.3867 197.715 38.2025 197.82 39.2461H196.501C196.387 38.4531 196.139 37.8789 195.756 37.5234C195.378 37.168 194.847 36.9902 194.163 36.9902C193.325 36.9902 192.666 37.3001 192.188 37.9199C191.714 38.5397 191.477 39.4215 191.477 40.5654V41.5293C191.477 42.6094 191.702 43.4684 192.153 44.1064C192.604 44.7445 193.236 45.0635 194.047 45.0635C194.776 45.0635 195.334 44.8994 195.722 44.5713C196.114 44.2386 196.373 43.6621 196.501 42.8418H197.82ZM200.938 44.9268H205.654V46H199.618V36.0469H200.938V44.9268ZM213.789 36.0469V42.8145C213.785 43.7533 213.488 44.5212 212.9 45.1182C212.317 45.7152 211.524 46.0501 210.521 46.123L210.173 46.1367C209.084 46.1367 208.215 45.8428 207.568 45.2549C206.921 44.667 206.593 43.8581 206.584 42.8281V36.0469H207.883V42.7871C207.883 43.5072 208.081 44.0677 208.478 44.4688C208.874 44.8652 209.439 45.0635 210.173 45.0635C210.916 45.0635 211.483 44.8652 211.875 44.4688C212.271 44.0723 212.47 43.514 212.47 42.7939V36.0469H213.789ZM215.86 46V36.0469H219.114C220.194 36.0469 221.006 36.2702 221.548 36.7168C222.095 37.1634 222.368 37.8242 222.368 38.6992C222.368 39.1641 222.236 39.5765 221.972 39.9365C221.707 40.292 221.347 40.5677 220.892 40.7637C221.429 40.9141 221.853 41.2012 222.163 41.625C222.478 42.0443 222.635 42.5456 222.635 43.1289C222.635 44.0221 222.345 44.724 221.767 45.2344C221.188 45.7448 220.37 46 219.312 46H215.86ZM217.173 41.3447V44.9268H219.34C219.951 44.9268 220.431 44.7695 220.782 44.4551C221.138 44.1361 221.315 43.6986 221.315 43.1426C221.315 41.944 220.664 41.3447 219.36 41.3447H217.173ZM217.173 40.292H219.155C219.729 40.292 220.188 40.1484 220.529 39.8613C220.876 39.5742 221.049 39.1846 221.049 38.6924C221.049 38.1455 220.889 37.749 220.57 37.5029C220.251 37.2523 219.766 37.127 219.114 37.127H217.173V40.292Z" fill="#A4A4A4"/>
</svg>
