<svg width="14" height="14" viewBox="0 0 14 14" fill="none" xmlns="http://www.w3.org/2000/svg">
<path d="M0.875 7.42908V12.6791C0.875 13.1621 1.26788 13.5541 1.75 13.5541H6.125V7.42908H0.875Z" fill="#F8856B"/>
<path d="M13.125 3.92908H10.3565C10.5551 3.79345 10.7257 3.6587 10.8448 3.53795C11.5509 2.82833 11.5509 1.67333 10.8448 0.963704C10.1588 0.272454 8.9635 0.274204 8.27838 0.963704C7.89863 1.34433 6.89237 2.89395 7.0315 3.92908H6.9685C7.10675 2.89395 6.1005 1.34433 5.72162 0.963704C5.03562 0.274204 3.84037 0.274204 3.15525 0.963704C2.45 1.67333 2.45 2.82833 3.15438 3.53795C3.27425 3.6587 3.44488 3.79345 3.6435 3.92908H0.875C0.392875 3.92908 0 4.32195 0 4.80408V6.11658C0 6.35808 0.196 6.55408 0.4375 6.55408H6.125V4.80408H7.875V6.55408H13.5625C13.804 6.55408 14 6.35808 14 6.11658V4.80408C14 4.32195 13.608 3.92908 13.125 3.92908ZM6.07337 3.9002C6.07337 3.9002 6.03662 3.92908 5.9115 3.92908C5.30688 3.92908 4.15275 3.30083 3.77562 2.92108C3.409 2.55183 3.409 1.94983 3.77562 1.58058C3.95325 1.40208 4.18862 1.30408 4.43888 1.30408C4.68825 1.30408 4.92362 1.40208 5.10125 1.58058C5.691 2.17383 6.27725 3.68933 6.07337 3.9002ZM8.08763 3.92908C7.96338 3.92908 7.92663 3.90108 7.92663 3.9002C7.72275 3.68933 8.309 2.17383 8.89875 1.58058C9.25138 1.22445 9.86825 1.2227 10.2244 1.58058C10.5919 1.94983 10.5919 2.55183 10.2244 2.92108C9.84725 3.30083 8.69312 3.92908 8.08763 3.92908Z" fill="#F8856B"/>
<path d="M7.875 7.42908V13.5541H12.25C12.733 13.5541 13.125 13.1621 13.125 12.6791V7.42908H7.875Z" fill="#F8856B"/>
</svg>
