<svg width="18" height="18" viewBox="0 0 18 18" fill="none" xmlns="http://www.w3.org/2000/svg">
<path d="M0.778723 8.2218C0.34938 8.2218 0 8.57118 0 9.00057C0 9.42941 0.349105 9.77879 0.778723 9.77879H4.05698V8.2218H0.778723Z" fill="white"/>
<path d="M15.4054 2.02899H6.65251C5.22138 2.02899 4.05705 3.19277 4.05705 4.62362V4.70482V8.2215H11.0707L9.57079 6.72141C9.26768 6.41775 9.26768 5.9238 9.57079 5.62027C9.71784 5.47323 9.91302 5.39217 10.1209 5.39217C10.3296 5.39217 10.5248 5.47327 10.6721 5.62027L13.5013 8.44961C13.5723 8.52036 13.6285 8.60422 13.6686 8.69917C13.7102 8.80142 13.7295 8.90013 13.7295 9.0005C13.7295 9.10059 13.7105 9.19945 13.6717 9.29408C13.6301 9.39408 13.5739 9.47748 13.5034 9.54933L10.672 12.3802C10.5242 12.5272 10.3284 12.6079 10.1209 12.6079C9.91325 12.6079 9.71692 12.5272 9.57047 12.3802C9.26736 12.0759 9.26736 11.582 9.57047 11.2786L11.0707 9.77867H4.05701V10.6302V12.1938V13.3769C4.05701 14.8071 5.22138 15.971 6.65246 15.971H15.4053C16.8365 15.971 18 14.8071 18 13.3769V4.62394C18 3.19277 16.8365 2.02899 15.4054 2.02899Z" fill="white"/>
</svg>
