<svg width="14" height="14" viewBox="0 0 14 14" fill="none" xmlns="http://www.w3.org/2000/svg">
<path d="M10.2793 5.75006C9.14881 5.75006 8.22894 6.66992 8.22894 7.80046C8.22894 8.93099 9.14881 9.85085 10.2793 9.85085C11.4099 9.85085 12.3297 8.93099 12.3297 7.80046C12.3297 6.66992 11.4099 5.75006 10.2793 5.75006Z" fill="#F8856B"/>
<path d="M2.07773 13.5689V12.7214C2.07773 12.5809 2.09261 12.4444 2.10841 12.3083C2.09794 12.3084 2.08823 12.3114 2.07773 12.3114C1.41056 12.3114 0.795226 11.9861 0.42055 11.4912C0.160341 11.835 0 12.2581 0 12.7214V13.5689C0 13.7956 0.183415 13.979 0.410079 13.979H2.15327C2.10732 13.8501 2.07773 13.7134 2.07773 13.5689Z" fill="#F8856B"/>
<path d="M2.07771 9.0307C1.39933 9.0307 0.847473 9.58256 0.847473 10.2609C0.847473 10.9393 1.39933 11.4912 2.07771 11.4912C2.15787 11.4912 2.23584 11.4822 2.31178 11.4675C2.51663 10.905 2.84962 10.409 3.28241 10.0117C3.16688 9.45245 2.67071 9.0307 2.07771 9.0307Z" fill="#F8856B"/>
<path d="M5.76844 12.7214C5.76844 12.2869 5.83351 11.868 5.94871 11.4701C5.88783 11.4748 5.83058 11.4912 5.76844 11.4912C5.0025 11.4912 4.3257 11.1321 3.87412 10.5817C3.28027 11.108 2.89789 11.8675 2.89789 12.7214V13.5689C2.89789 13.7956 3.0813 13.979 3.30797 13.979H5.84398C5.79802 13.8501 5.76844 13.7134 5.76844 13.5689V12.7214Z" fill="#F8856B"/>
<path d="M5.76843 7.39038C4.86377 7.39038 4.12811 8.12604 4.12811 9.0307C4.12811 9.93536 4.86377 10.671 5.76843 10.671C5.96117 10.671 6.14346 10.6315 6.31537 10.5702C6.58752 10.0708 6.95216 9.62919 7.38491 9.26611C7.39617 9.18858 7.40875 9.11129 7.40875 9.0307C7.40875 8.12604 6.67309 7.39038 5.76843 7.39038Z" fill="#F8856B"/>
<path d="M12.4038 9.71326C11.878 10.2967 11.1246 10.671 10.2793 10.671C9.43405 10.671 8.68066 10.2967 8.15485 9.71326C7.21049 10.3824 6.58862 11.4784 6.58862 12.7214V13.5689C6.58862 13.7955 6.77204 13.979 6.9987 13.979H13.5873C13.814 13.979 13.9974 13.7955 13.9974 13.5689V12.7214C13.9974 11.4784 13.3482 10.3824 12.4038 9.71326Z" fill="#F8856B"/>
<path d="M12.7125 1.777C12.6641 1.62841 12.5359 1.52029 12.3814 1.49787L11.1832 1.32367L10.6469 0.210248C10.5092 -0.0700825 10.0494 -0.0700825 9.91165 0.210248L9.37543 1.32367L8.17724 1.49787C8.02266 1.52029 7.8945 1.62841 7.84606 1.777C7.798 1.92517 7.83805 2.08816 7.94978 2.19708L8.81721 3.04247L8.61258 4.23586C8.58614 4.38964 8.64943 4.54503 8.77557 4.63672C8.90212 4.72924 9.07031 4.74086 9.20727 4.66797L10.2793 4.10491C10.4259 4.18189 11.3853 4.71521 11.542 4.71521C11.6269 4.71521 11.7118 4.68878 11.7831 4.63672C11.9092 4.54503 11.9725 4.38964 11.9461 4.23586L11.7414 3.04247L12.6089 2.19708C12.7206 2.08816 12.7606 1.92517 12.7125 1.777Z" fill="#F8856B"/>
<path d="M8.29141 5.29872C8.08642 5.14975 7.94344 4.9449 7.86241 4.71654L7.06237 5.51658L5.69957 3.4722C5.6315 3.37009 5.52097 3.3036 5.39882 3.2916C5.27588 3.28279 5.15534 3.32284 5.06843 3.40973L1.7878 6.69036C1.62762 6.85054 1.62762 7.11006 1.7878 7.27024C1.8679 7.35034 1.97282 7.39039 2.07772 7.39039C2.18262 7.39039 2.28757 7.35034 2.36765 7.27024L5.29466 4.34323L6.65746 6.38761C6.72554 6.48972 6.83607 6.55621 6.95821 6.56821C7.08476 6.58103 7.2021 6.53696 7.2886 6.45008L8.38953 5.34915C8.35779 5.33002 8.32165 5.32086 8.29141 5.29872Z" fill="#F8856B"/>
</svg>
