<svg width="14" height="14" viewBox="0 0 14 14" fill="none" xmlns="http://www.w3.org/2000/svg">
<path d="M7 6.84692C8.55656 6.84692 9.81851 5.3142 9.81851 3.42348C9.81851 1.53272 9.4042 0 7 0C4.5958 0 4.1814 1.53272 4.1814 3.42348C4.1814 5.3142 5.44336 6.84692 7 6.84692Z" fill="white"/>
<path d="M1.67634 12.0741C1.67586 11.9589 1.67538 12.0417 1.67634 12.0741V12.0741Z" fill="white"/>
<path d="M12.3234 12.1642C12.3249 12.1326 12.3239 11.9452 12.3234 12.1642V12.1642Z" fill="white"/>
<path d="M12.3174 11.9358C12.2652 8.64216 11.835 7.70364 8.54327 7.10956C8.54327 7.10956 8.07991 7.7 6.99991 7.7C5.91991 7.7 5.45647 7.10956 5.45647 7.10956C2.20067 7.69716 1.74435 8.62176 1.68435 11.8288C1.67943 12.0907 1.67715 12.1045 1.67627 12.0741C1.67647 12.131 1.67671 12.2364 1.67671 12.4201C1.67671 12.4201 2.46039 14 6.99991 14C11.5393 14 12.3231 12.4201 12.3231 12.4201C12.3231 12.3021 12.3232 12.22 12.3233 12.1642C12.3224 12.183 12.3207 12.1465 12.3174 11.9358Z" fill="white"/>
</svg>
