<svg width="30" height="30" viewBox="0 0 30 30" fill="none" xmlns="http://www.w3.org/2000/svg">
<g clip-path="url(#clip0)">
<path d="M15.0008 29.9997C23.285 29.9997 30.0007 23.2841 30.0007 14.9999C30.0007 6.71567 23.285 0 15.0008 0C6.71665 0 0.000976562 6.71567 0.000976562 14.9999C0.000976562 23.2841 6.71665 29.9997 15.0008 29.9997Z" fill="#5E5E5E"/>
<path d="M24.188 10.78C23.5452 11.065 22.8538 11.2578 22.1286 11.3439C22.869 10.9003 23.4372 10.1984 23.7054 9.36067C23.0126 9.77165 22.2449 10.0698 21.4286 10.2305C20.7746 9.53394 19.8427 9.09863 18.8109 9.09863C16.8311 9.09863 15.2255 10.7043 15.2255 12.684C15.2255 12.965 15.2573 13.2386 15.3188 13.5012C12.339 13.3517 9.697 11.9244 7.9285 9.75453C7.61994 10.284 7.44293 10.9003 7.44293 11.5573C7.44293 12.8009 8.07637 13.8988 9.03789 14.5416C8.45044 14.5231 7.89722 14.3619 7.41405 14.0926C7.41378 14.1079 7.41378 14.1231 7.41378 14.1381C7.41378 15.8753 8.65018 17.3243 10.2901 17.6534C9.98952 17.7358 9.67213 17.7793 9.34565 17.7793C9.11409 17.7793 8.88976 17.7572 8.67103 17.7154C9.1272 19.1395 10.451 20.1762 12.0203 20.2053C10.793 21.1671 9.24725 21.7401 7.56699 21.7401C7.27822 21.7401 6.99211 21.7233 6.71216 21.6899C8.29803 22.7076 10.1831 23.3009 12.2078 23.3009C18.8026 23.3009 22.4091 17.8376 22.4091 13.0993C22.4091 12.9439 22.4056 12.7891 22.3987 12.6356C23.0998 12.1303 23.7075 11.499 24.188 10.78Z" fill="white"/>
</g>
<defs>
<clipPath id="clip0">
<rect width="30" height="30" fill="white"/>
</clipPath>
</defs>
</svg>
