<svg width="30" height="30" viewBox="0 0 30 30" fill="none" xmlns="http://www.w3.org/2000/svg">
<path d="M15 30C23.2843 30 30 23.2843 30 15C30 6.71573 23.2843 0 15 0C6.71573 0 0 6.71573 0 15C0 23.2843 6.71573 30 15 30Z" fill="#5E5E5E"/>
<path fill-rule="evenodd" clip-rule="evenodd" d="M14.4334 21.5787H15.6108C15.6108 21.5787 15.9664 21.5397 16.1479 21.344C16.3151 21.1643 16.3097 20.8268 16.3097 20.8268C16.3097 20.8268 16.2867 19.2471 17.0199 19.0145C17.7426 18.7853 18.6708 20.5412 19.6545 21.2164C20.3984 21.7274 20.9636 21.6154 20.9636 21.6154L23.5939 21.5787C23.5939 21.5787 24.9699 21.494 24.3175 20.4121C24.264 20.3236 23.9375 19.6118 22.3618 18.1492C20.7125 16.6184 20.9334 16.866 22.9201 14.218C24.13 12.6054 24.6138 11.6209 24.4627 11.1992C24.3186 10.7976 23.4287 10.9037 23.4287 10.9037L20.4671 10.9222C20.4671 10.9222 20.2476 10.8922 20.0847 10.9896C19.9256 11.085 19.8232 11.3075 19.8232 11.3075C19.8232 11.3075 19.3545 12.5554 18.7293 13.6167C17.4106 15.8561 16.8833 15.9742 16.6677 15.8352C16.1664 15.5111 16.2915 14.5333 16.2915 13.8386C16.2915 11.6685 16.6207 10.7636 15.6506 10.5294C15.3287 10.4516 15.0918 10.4002 14.2685 10.392C13.2117 10.381 12.3173 10.3952 11.8109 10.6433C11.474 10.8083 11.2141 11.1759 11.3724 11.1971C11.5681 11.2233 12.0114 11.3166 12.2465 11.6367C12.5499 12.0495 12.5393 12.9768 12.5393 12.9768C12.5393 12.9768 12.7136 15.5314 12.132 15.8488C11.7328 16.0665 11.1852 15.6221 10.0095 13.5905C9.40706 12.5498 8.95223 11.3995 8.95223 11.3995C8.95223 11.3995 8.86452 11.1845 8.7081 11.0695C8.51826 10.9302 8.25301 10.8858 8.25301 10.8858L5.43873 10.9043C5.43873 10.9043 5.01626 10.916 4.86117 11.0997C4.7232 11.2631 4.85021 11.6011 4.85021 11.6011C4.85021 11.6011 7.0535 16.7558 9.54824 19.3535C11.8358 21.7351 14.4334 21.5787 14.4334 21.5787Z" fill="white"/>
</svg>
